<?xml version="1.0" encoding="utf-8"?>
<!-- Generator: Adobe Illustrator 16.0.0, SVG Export Plug-In . SVG Version: 6.00 Build 0)  -->
<!DOCTYPE svg PUBLIC "-//W3C//DTD SVG 1.1//EN" "http://www.w3.org/Graphics/SVG/1.1/DTD/svg11.dtd" [
	<!ENTITY ns_extend "http://ns.adobe.com/Extensibility/1.0/">
	<!ENTITY ns_ai "http://ns.adobe.com/AdobeIllustrator/10.0/">
	<!ENTITY ns_graphs "http://ns.adobe.com/Graphs/1.0/">
	<!ENTITY ns_vars "http://ns.adobe.com/Variables/1.0/">
	<!ENTITY ns_imrep "http://ns.adobe.com/ImageReplacement/1.0/">
	<!ENTITY ns_sfw "http://ns.adobe.com/SaveForWeb/1.0/">
	<!ENTITY ns_custom "http://ns.adobe.com/GenericCustomNamespace/1.0/">
	<!ENTITY ns_adobe_xpath "http://ns.adobe.com/XPath/1.0/">
]>
<svg version="1.1" id="Layer_1" xmlns:x="&ns_extend;" xmlns:i="&ns_ai;" xmlns:graph="&ns_graphs;"
	 xmlns="http://www.w3.org/2000/svg" xmlns:xlink="http://www.w3.org/1999/xlink" x="0px" y="0px" width="385.072px"
	 height="54.146px" viewBox="0 -6.854 385.072 54.146" enable-background="new 0 -6.854 385.072 54.146" xml:space="preserve">
<metadata>
	<sfw  xmlns="&ns_sfw;">
		<slices></slices>
		<sliceSourceBounds  y="133.423" x="16.223" bottomLeftOrigin="true" height="145.954" width="266.558"></sliceSourceBounds>
	</sfw>
</metadata>
<g id="Layer_1_1_">
	<g>
		<g>
			<path fill="#FFFFFF" d="M159.787-69.523c-1.231,0.023-2.47-0.437-3.409-1.38L140.342-86.86c-1.823-1.831-1.813-4.793,0.016-6.611
				c1.832-1.819,4.792-1.812,6.613,0.019l16.037,15.958c1.824,1.831,1.813,4.792-0.016,6.612
				C162.103-69.999,160.95-69.545,159.787-69.523z"/>
		</g>
		<g>
			<path fill="#FFFFFF" d="M204.259-25.047c-1.229,0.024-2.47-0.439-3.406-1.381l-16.037-15.956
				c-1.822-1.831-1.813-4.794,0.018-6.611c1.832-1.819,4.792-1.815,6.611,0.018l16.039,15.958c1.818,1.832,1.812,4.792-0.017,6.611
				C206.577-25.522,205.42-25.071,204.259-25.047z"/>
		</g>
		<g>
			<path fill="#FFFFFF" d="M136.633-21.476h-18.308c-3.212,0-5.29-2.003-5.29-5.091c0-2.839,2.138-5.123,5.29-5.123h15.251
				c4.319,0,7.535-3.116,10.144-5.729l58.386-59.089c5.348-5.345,10.242-8.723,17.424-8.723h14.699c3.662,0,5.431,3.759,5.431,5.653
				l-0.027,67.889h27.817c2.525,0,4.584,2.484,4.584,5.323c0,2.29-1.883,4.892-4.223,4.892h-33.582c-2.095,0-5.816-1.72-5.816-5.299
				V-93.22c0,0-6.477,0.017-8.631,0.017c-4.561,0-6.938,1.985-8.821,3.866c-1.883,1.882-60.214,60.199-60.214,60.199
				C144.886-23.277,141.024-21.476,136.633-21.476z"/>
		</g>
	</g>
	<g>
		<path fill="#FFFFFF" d="M73.864,22.063l9.772-14.762c0.156-0.209,0.26-0.624,0.26-0.937c0-0.986-0.779-1.768-1.767-1.768
			c-0.729,0-1.196,0.365-1.561,0.884l-8.68,13.307L63.21,5.48c-0.364-0.519-0.832-0.884-1.561-0.884
			c-0.987,0-1.767,0.781-1.767,1.768c0,0.312,0.104,0.728,0.26,0.937l9.771,14.762L59.519,37.707
			c-0.156,0.262-0.26,0.572-0.26,0.938c0,0.985,0.78,1.769,1.768,1.769c0.571,0,1.145-0.262,1.403-0.678l9.46-14.502l9.46,14.502
			c0.26,0.416,0.832,0.678,1.403,0.678c0.988,0,1.767-0.781,1.767-1.769c0-0.365-0.104-0.677-0.26-0.938L73.864,22.063z"/>
		<path fill="#FFFFFF" d="M119.703,4.596c-0.937,0-1.352,0.625-1.56,0.988L105.512,29.13L92.934,5.584
			c-0.26-0.519-0.78-0.988-1.559-0.988c-0.937,0-1.716,0.781-1.716,1.716v32.382c0,0.937,0.779,1.718,1.716,1.718
			c0.935,0,1.715-0.781,1.715-1.718V13.122l10.864,20.221c0.363,0.728,1.04,0.988,1.559,0.988c0.624,0,1.196-0.314,1.56-0.988
			l10.915-20.221v25.573c0,0.936,0.78,1.717,1.716,1.717s1.716-0.781,1.716-1.717V6.312C121.418,5.377,120.639,4.596,119.703,4.596z
			"/>
		<path fill="#FFFFFF" d="M143.189,5.794c-0.26-0.625-0.831-1.198-1.715-1.198c-0.936,0-1.403,0.572-1.664,1.198l-12.682,32.069
			c-0.104,0.209-0.156,0.572-0.156,0.781c0,0.936,0.779,1.768,1.768,1.768c0.884,0,1.455-0.572,1.715-1.248l3.794-9.513h14.502
			l3.743,9.565c0.259,0.674,0.831,1.195,1.715,1.195c1.092,0,1.82-0.834,1.82-1.77c0-0.156-0.053-0.521-0.157-0.781L143.189,5.794z
			 M135.341,26.427l6.134-15.903l6.186,15.903H135.341z"/>
		<path fill="#FFFFFF" d="M174.32,24.871c5.613-0.262,9.304-4.575,9.304-9.931c0-5.56-4.158-9.927-9.929-9.927h-10.344
			c-0.986,0-1.768,0.781-1.768,1.767v31.864c0,0.986,0.779,1.768,1.768,1.768c0.989,0,1.768-0.781,1.768-1.768V24.871h5.25
			l10.552,14.709c0.415,0.623,0.987,0.832,1.507,0.832c0.988,0,1.768-0.781,1.768-1.768c0-0.365-0.104-0.781-0.364-1.094
			L174.32,24.871z M165.12,21.647V8.236h8.524c3.742,0,6.394,2.858,6.394,6.704c0,3.744-2.599,6.707-6.238,6.707H165.12z"/>
		<path fill="#FFFFFF" d="M210.024,5.013h-22.091c-0.935,0-1.662,0.728-1.662,1.665c0,0.935,0.728,1.663,1.662,1.663h9.304v30.304
			c0,0.985,0.779,1.769,1.769,1.769s1.769-0.781,1.769-1.769V8.34h9.252c0.937,0,1.664-0.728,1.664-1.663
			C211.688,5.74,210.961,5.013,210.024,5.013z"/>
		<path fill="#FFFFFF" d="M234.919,36.667h-14.243V6.364c0-0.986-0.776-1.768-1.767-1.768c-0.987,0-1.77,0.781-1.77,1.768v31.864
			c0,0.988,0.78,1.768,1.77,1.768h16.01c0.936,0,1.662-0.729,1.662-1.662C236.581,37.395,235.854,36.667,234.919,36.667z"/>
		<path fill="#FFFFFF" d="M255.703,5.794c-0.259-0.625-0.83-1.198-1.716-1.198c-0.934,0-1.401,0.572-1.661,1.198l-12.685,32.069
			c-0.104,0.209-0.156,0.572-0.156,0.781c0,0.936,0.781,1.768,1.77,1.768c0.885,0,1.456-0.572,1.717-1.248l3.793-9.513h14.504
			l3.739,9.565c0.263,0.674,0.832,1.195,1.718,1.195c1.092,0,1.817-0.834,1.817-1.77c0-0.156-0.053-0.521-0.153-0.781L255.703,5.794
			z M247.854,26.427l6.133-15.903l6.187,15.903H247.854z"/>
		<path fill="#FFFFFF" d="M290.267,21.335c2.909-0.833,5.041-3.639,5.041-7.069c0-5.614-3.273-9.253-10.604-9.253h-8.836
			c-0.938,0-1.769,0.781-1.769,1.767v31.448c0,0.988,0.83,1.768,1.769,1.768h10.396c6.859,0,10.654-3.951,10.654-9.979
			C296.918,24.972,294.008,22.27,290.267,21.335z M277.633,8.236h7.021c4.834,0,7.068,2.288,7.068,6.03
			c0,3.637-2.441,6.03-7.068,6.03h-7.021V8.236z M286.211,36.772h-8.578V23.31h8.578c4.418,0,7.119,2.443,7.119,6.705
			C293.33,34.225,290.938,36.772,286.211,36.772z"/>
		<path fill="#FFFFFF" d="M306.166,13.173c0-2.963,2.078-5.665,7.537-5.665c4.365,0,6.858,2.184,8.42,4.107
			c0.416,0.519,0.883,0.674,1.352,0.674c0.937,0,1.664-0.726,1.664-1.663c0-0.363-0.104-0.675-0.312-0.986
			c-2.185-3.276-6.187-5.355-11.123-5.355c-7.59,0-11.072,4.107-11.072,8.888c0,12.321,19.648,7.746,19.648,17.466
			c0,4.573-3.224,6.86-8.941,6.86c-4.572,0-7.588-2.234-9.252-4.938c-0.312-0.521-0.832-0.833-1.455-0.833
			c-0.936,0-1.664,0.729-1.664,1.663c0,0.312,0.053,0.521,0.262,0.938c1.769,3.377,6.187,6.394,12.109,6.394
			c8.006,0,12.478-3.586,12.478-10.084C325.812,18.112,306.166,21.803,306.166,13.173z"/>
	</g>
</g>
<g id="guides" display="none">
</g>
</svg>
